<svg width="96" height="96" viewBox="0 0 96 96" fill="none" xmlns="http://www.w3.org/2000/svg">
<g filter="url(#filter0_d_46_440)">
<rect x="3" width="90" height="90" rx="13.0435" fill="#1EC687" shape-rendering="crispEdges"/>
<path d="M32.2741 22.359H36.6131L41.1959 33.5397H41.3909L45.9737 22.359H50.3127V39H46.9V28.1687H46.7619L42.4554 38.9187H40.1315L35.825 28.1281H35.6868V39H32.2741V22.359ZM55.2835 43.6803C54.8447 43.6803 54.433 43.6451 54.0484 43.5746C53.6692 43.5096 53.355 43.4257 53.1058 43.3228L53.8859 40.7389C54.2922 40.8634 54.6578 40.9312 54.9828 40.942C55.3133 40.9528 55.5977 40.877 55.836 40.7145C56.0798 40.552 56.2775 40.2757 56.4292 39.8857L56.6323 39.3575L52.1552 26.5193H55.7954L58.3793 35.6848H58.5093L61.1176 26.5193H64.7822L59.9312 40.3488C59.6983 41.0205 59.3814 41.6056 58.9806 42.1039C58.5851 42.6077 58.084 42.995 57.4773 43.2659C56.8706 43.5421 56.1394 43.6803 55.2835 43.6803ZM29.5816 55.1449C29.5165 54.4895 29.2376 53.9803 28.7446 53.6173C28.2517 53.2544 27.5827 53.0729 26.7376 53.0729C26.1634 53.0729 25.6786 53.1542 25.2832 53.3167C24.8877 53.4738 24.5844 53.6932 24.3731 53.9749C24.1673 54.2565 24.0644 54.5761 24.0644 54.9337C24.0535 55.2316 24.1158 55.4916 24.2512 55.7137C24.3921 55.9358 24.5844 56.1281 24.8281 56.2906C25.0719 56.4477 25.3536 56.5858 25.6732 56.705C25.9928 56.8188 26.3341 56.9163 26.697 56.9975L28.1921 57.3551C28.918 57.5176 29.5843 57.7342 30.191 58.0051C30.7977 58.2759 31.3231 58.6091 31.7673 59.0045C32.2115 59.4 32.5555 59.8658 32.7992 60.4021C33.0484 60.9384 33.1757 61.5532 33.1811 62.2466C33.1757 63.265 32.9157 64.148 32.4011 64.8955C31.8919 65.6376 31.1552 66.2145 30.191 66.6262C29.2322 67.0325 28.0756 67.2356 26.7214 67.2356C25.378 67.2356 24.2079 67.0298 23.2112 66.6181C22.2199 66.2064 21.4452 65.597 20.8873 64.7899C20.3348 63.9773 20.0449 62.9725 20.0179 61.7753H23.4224C23.4604 62.3333 23.6202 62.7991 23.9018 63.1729C24.1889 63.5413 24.5708 63.8202 25.0475 64.0098C25.5296 64.194 26.0741 64.2861 26.6808 64.2861C27.2766 64.2861 27.7939 64.1994 28.2327 64.0261C28.6769 63.8527 29.0209 63.6117 29.2647 63.3029C29.5084 62.9941 29.6303 62.6393 29.6303 62.2385C29.6303 61.8647 29.5193 61.5505 29.2972 61.2959C29.0805 61.0413 28.7609 60.8246 28.3384 60.6459C27.9212 60.4671 27.4093 60.3046 26.8026 60.1583L24.9907 59.7033C23.5877 59.362 22.4799 58.8285 21.6673 58.1026C20.8548 57.3767 20.4512 56.399 20.4566 55.1693C20.4512 54.1617 20.7194 53.2815 21.2611 52.5285C21.8082 51.7756 22.5584 51.1878 23.5118 50.7653C24.4652 50.3428 25.5486 50.1315 26.762 50.1315C27.9971 50.1315 29.0751 50.3428 29.996 50.7653C30.9223 51.1878 31.6427 51.7756 32.1573 52.5285C32.6719 53.2815 32.9374 54.1536 32.9536 55.1449H29.5816ZM38.9441 59.7846V67H35.4827V50.359H38.8466V56.7213H38.9929C39.2746 55.9846 39.7296 55.4076 40.358 54.9905C40.9863 54.568 41.7745 54.3568 42.7225 54.3568C43.5892 54.3568 44.3449 54.5463 44.9895 54.9255C45.6395 55.2993 46.1433 55.8383 46.5008 56.5425C46.8638 57.2413 47.0425 58.0782 47.0371 59.0533V67H43.5757V59.6708C43.5811 58.9016 43.3861 58.303 42.9906 57.8751C42.6006 57.4471 42.0535 57.2332 41.3493 57.2332C40.878 57.2332 40.4609 57.3334 40.098 57.5338C39.7404 57.7342 39.4588 58.0268 39.2529 58.4114C39.0525 58.7906 38.9496 59.2483 38.9441 59.7846ZM55.4003 67.2438C54.1381 67.2438 53.0466 66.9756 52.1257 66.4393C51.2102 65.8976 50.5033 65.1447 50.005 64.1805C49.5066 63.2108 49.2574 62.0868 49.2574 60.8084C49.2574 59.5191 49.5066 58.3924 50.005 57.4282C50.5033 56.4585 51.2102 55.7056 52.1257 55.1693C53.0466 54.6276 54.1381 54.3568 55.4003 54.3568C56.6624 54.3568 57.7512 54.6276 58.6667 55.1693C59.5876 55.7056 60.2972 56.4585 60.7956 57.4282C61.294 58.3924 61.5431 59.5191 61.5431 60.8084C61.5431 62.0868 61.294 63.2108 60.7956 64.1805C60.2972 65.1447 59.5876 65.8976 58.6667 66.4393C57.7512 66.9756 56.6624 67.2438 55.4003 67.2438ZM55.4165 64.5624C55.9907 64.5624 56.4701 64.3998 56.8547 64.0748C57.2393 63.7444 57.5291 63.2948 57.7242 62.726C57.9246 62.1572 58.0248 61.5099 58.0248 60.784C58.0248 60.0581 57.9246 59.4108 57.7242 58.842C57.5291 58.2732 57.2393 57.8236 56.8547 57.4932C56.4701 57.1627 55.9907 56.9975 55.4165 56.9975C54.8369 56.9975 54.3494 57.1627 53.9539 57.4932C53.5639 57.8236 53.2687 58.2732 53.0683 58.842C52.8732 59.4108 52.7757 60.0581 52.7757 60.784C52.7757 61.5099 52.8732 62.1572 53.0683 62.726C53.2687 63.2948 53.5639 63.7444 53.9539 64.0748C54.3494 64.3998 54.8369 64.5624 55.4165 64.5624ZM63.7939 71.6803V54.5193H67.2066V56.6156H67.361C67.5127 56.2798 67.732 55.9385 68.0191 55.5918C68.3117 55.2397 68.6909 54.9472 69.1567 54.7143C69.628 54.4759 70.213 54.3568 70.9118 54.3568C71.8219 54.3568 72.6615 54.5951 73.4307 55.0718C74.1999 55.5431 74.8148 56.2554 75.2752 57.2088C75.7356 58.1568 75.9659 59.3458 75.9659 60.7759C75.9659 62.168 75.7411 63.3435 75.2915 64.3023C74.8473 65.2557 74.2406 65.9789 73.4713 66.4718C72.7075 66.9594 71.8517 67.2031 70.9037 67.2031C70.232 67.2031 69.6605 67.0921 69.1892 66.87C68.7234 66.6479 68.3415 66.3689 68.0435 66.0331C67.7456 65.6918 67.5181 65.3478 67.361 65.0011H67.2554V71.6803H63.7939ZM67.1822 60.7596C67.1822 61.5018 67.2851 62.1491 67.491 62.7016C67.6968 63.2542 67.9948 63.6848 68.3848 63.9936C68.7748 64.2969 69.2488 64.4486 69.8068 64.4486C70.3701 64.4486 70.8468 64.2942 71.2368 63.9854C71.6269 63.6713 71.9221 63.2379 72.1225 62.6854C72.3284 62.1274 72.4313 61.4855 72.4313 60.7596C72.4313 60.0392 72.3311 59.4054 72.1306 58.8583C71.9302 58.3112 71.635 57.8832 71.245 57.5744C70.8549 57.2657 70.3755 57.1113 69.8068 57.1113C69.2434 57.1113 68.7667 57.2603 68.3767 57.5582C67.9921 57.8561 67.6968 58.2786 67.491 58.8258C67.2851 59.3729 67.1822 60.0175 67.1822 60.7596Z" fill="white"/>
</g>
<defs>
<filter id="filter0_d_46_440" x="0.391304" y="0" width="95.2174" height="95.2174" filterUnits="userSpaceOnUse" color-interpolation-filters="sRGB">
<feFlood flood-opacity="0" result="BackgroundImageFix"/>
<feColorMatrix in="SourceAlpha" type="matrix" values="0 0 0 0 0 0 0 0 0 0 0 0 0 0 0 0 0 0 127 0" result="hardAlpha"/>
<feOffset dy="2.6087"/>
<feGaussianBlur stdDeviation="1.30435"/>
<feComposite in2="hardAlpha" operator="out"/>
<feColorMatrix type="matrix" values="0 0 0 0 0 0 0 0 0 0 0 0 0 0 0 0 0 0 0.25 0"/>
<feBlend mode="normal" in2="BackgroundImageFix" result="effect1_dropShadow_46_440"/>
<feBlend mode="normal" in="SourceGraphic" in2="effect1_dropShadow_46_440" result="shape"/>
</filter>
</defs>
</svg>
